<?xml version="1.0" encoding="UTF-8"?><svg id="Layer_1" xmlns="http://www.w3.org/2000/svg" xmlns:xlink="http://www.w3.org/1999/xlink" viewBox="0 0 720.12 252"><defs><style>.cls-1{fill:#fcb316;}.cls-1,.cls-2,.cls-3{stroke-width:0px;}.cls-2{fill:#0d2344;}.cls-3{fill:#fff;}</style></defs><g id="type"><path id="type_CompoundPathItem_" class="cls-3" d="M355.17,63.18c-33.04,0-53.52,7.31-53.52,43.67v37.31c0,36.37,20.48,43.68,53.52,43.68h61.84c39.14,0,44.54-17.34,44.54-36.07v-10.16h-35.2c-.43,15.67-7.48,17.28-24.02,17.28h-40.94c-20,0-23.52-8.59-23.52-26.63v-13.47c0-15.98,4.35-26.63,25.59-26.63h41.8c9.1,0,19.55,1.49,19.55,13.16v1.87h35.19c.06-15.15-1.4-25.98-8.23-32.87-7.82-7.9-22.75-11.12-51.52-11.12h-45.08Z"/><path id="type_CompoundPathItem_-2" class="cls-3" d="M495.97,186.45h35.18v-121.89h-35.18v121.89Z"/><path id="type_CompoundPathItem_-3" class="cls-3" d="M565.58,148.68v7.05c0,24.6,11.05,32.1,47.3,32.1h46.46c51.69,0,60.78-5.63,60.78-37.63,0-14.41-2.27-22.82-7.57-28.11-8.89-8.87-26.96-10.28-64.25-10.21-30.6.12-40.5-.04-44.84-4.36-2.21-2.2-2.52-5.28-2.52-8.27,0-7.15,5.87-11.26,16.09-11.26h42.49c17.34,0,19.99,3.97,20.22,12.95h35.2v-2.39c0-20.72-3.36-35.38-46.78-35.38h-53.55c-45.57,0-48.86,14.54-48.86,38.49,0,32.96,11.07,36.07,62.67,36.07s55.48.49,55.48,13.16-11.71,12.12-18,12.12h-46.98c-10.77,0-17.48-.99-18.12-14.34h-35.23Z"/></g><g id="type_GroupItem_"><a xlink:href="30.771"><path id="logoMark_PathItem_" class="cls-1" d="M2.36,149.79c.09-.02.19-.05.28-.07.66-.17,1.38-.37,2.2-.58,8.93-2.5,25.74-8.75,38.1-25.4.16-.22.33-.44.49-.67.86-1.19,1.7-2.43,2.5-3.72,1.58-2.48,3.04-5,4.51-7.55,5.74-10,11.67-20.35,25.56-28.62,14.98-8.92,33.44-11.86,54.9-8.78.07.01.13.07.13.15v18.54c0,.08-.07.15-.15.15l-3.98-.18c-19.92,0-32.36,12.93-33.91,30.08-1.76,19.54,13.64,36,32.81,36h121.75c3.08-11.34,4.63-23.3,4.38-35.65C250.58,53.9,193.05-1.37,123.48.03h0C53.9,1.42-1.37,58.95.03,128.52H.03c.15,7.27.91,14.38,2.23,21.29.04,0,.07-.02.1-.03,0,0,0,0,0,0Z"/></a><a xlink:href="1.4210854715202e-14"><path id="logoMark_PathItem_-2" class="cls-2" d="M125.84,159.12c-19.18,0-34.58-16.47-32.81-36,1.55-17.15,13.99-30.08,33.91-30.08l3.98.18c.08,0,.15-.07.15-.15v-18.54c0-.07-.06-.14-.13-.15-21.46-3.08-39.92-.14-54.9,8.78-13.89,8.27-19.82,18.62-25.56,28.62-1.47,2.56-2.93,5.07-4.51,7.55-.81,1.29-1.65,2.53-2.5,3.72-.16.22-.33.44-.49.67-12.36,16.66-29.17,22.91-38.1,25.4-.82.22-1.55.41-2.2.58-.09.02-.19.05-.28.07,0,0,0,0,0,0-.04,0-.07.02-.1.03,1.25,6.55,3,12.91,5.22,19.05.07-.02.13-.05.2-.07,0,0,0,0,0,0,.64-.21,1.39-.47,2.23-.77.01,0,.03-.01.04-.02h0c5.59-1.99,15.12-5.82,24.43-11.55,0,0,0,0,0,0,11.49-7.08,20.16-14.22,32.57-35.52,3.55-6.65,6.79-12.64,12.47-17.57.12-.11.31.03.24.17-3.76,7.64-5.67,16.34-5.17,25.52,1.52,27.5,23.75,48.52,52.83,48.52h113.65c2.67-5.93,4.88-12.1,6.62-18.47h-121.75Z"/></a><a xlink:href="1.4210854715202e-14"><path id="logoMark_PathItem_-3" class="cls-2" d="M115.08,53.76c2.57,0,5.18.09,7.84.26.88.06,1.79.18,2.68.25,1.76.15,3.51.28,5.3.49.09.01.16-.06.16-.14v-18.13c0-.08-.07-.15-.15-.15h-5.9c-32.87,0-61.65,17.82-77.22,44.29,4.57-4.85,10.19-9.6,17.45-13.92,14.42-8.59,31.2-12.95,49.85-12.95Z"/></a><a xlink:href="92.51163"><path id="logoMark_PathItem_-4" class="cls-3" d="M49.24,171.16l15.8-9.55c13.04,21.58,35.86,34.46,61.04,34.46h104.63c3.91-5.84,7.36-12.01,10.26-18.47h-113.65c-29.08,0-51.31-21.02-52.83-48.52-.51-9.18,1.41-17.88,5.17-25.52.07-.14-.11-.28-.24-.17-5.67,4.93-8.91,10.93-12.47,17.57-12.41,21.3-21.08,28.44-32.57,35.52,0,0,0,0,0,0-9.31,5.74-18.84,9.56-24.43,11.55h0s-.03.01-.04.02c-.83.3-1.58.56-2.23.77,0,0,0,0,0,0-.07.02-.13.04-.2.07,17.85,49.38,65.63,84.22,121.04,83.11h0c34.16-.68,64.86-14.91,87.1-37.45h-89.54c-31.7,0-60.43-16.21-76.85-43.37Z"/></a><a xlink:href="1.4210854715202e-14"><path id="logoMark_PathItem_-5" class="cls-2" d="M230.71,196.06h-104.63c-25.18,0-48-12.88-61.04-34.46l-15.8,9.55c16.42,27.16,45.15,43.37,76.85,43.37h89.54c5.59-5.66,10.64-11.84,15.09-18.47Z"/></a></g></svg>